<?xml version="1.0" encoding="UTF-8" standalone="no"?>
<svg xmlns:dc="http://purl.org/dc/elements/1.1/" xmlns:cc="http://creativecommons.org/ns#" xmlns:rdf="http://www.w3.org/1999/02/22-rdf-syntax-ns#" xmlns:svg="http://www.w3.org/2000/svg" xmlns="http://www.w3.org/2000/svg" xmlns:xlink="http://www.w3.org/1999/xlink" xmlns:sodipodi="http://sodipodi.sourceforge.net/DTD/sodipodi-0.dtd" xmlns:inkscape="http://www.inkscape.org/namespaces/inkscape" sodipodi:docname="Intel Xeon 2020 logo.svg" inkscape:version="1.0 (4035a4fb49, 2020-05-01)" id="svg8" version="1.1" viewBox="0 0 280.07001 280.07001" height="280.07001mm" width="280.07001mm">
  <defs id="defs2">
    <linearGradient id="linearGradient8279" inkscape:collect="always">
      <stop id="stop8275" offset="0" style="stop-color:#06113d;stop-opacity:1"/>
      <stop style="stop-color:#1b4786;stop-opacity:1" offset="0.50552261" id="stop8314"/>
      <stop id="stop8277" offset="1" style="stop-color:#06113e;stop-opacity:1"/>
    </linearGradient>
    <linearGradient id="linearGradient1280" inkscape:collect="always">
      <stop id="stop1276" offset="0" style="stop-color:#ff5700;stop-opacity:1"/>
      <stop style="stop-color:#9500d4;stop-opacity:0.98431373" offset="0.5" id="stop1293"/>
      <stop id="stop1278" offset="1" style="stop-color:#1500e8;stop-opacity:0.969697"/>
    </linearGradient>
    <linearGradient gradientTransform="matrix(0.26458333,0,0,0.26458333,-62.339641,-55.916643)" gradientUnits="userSpaceOnUse" y2="405.37692" x2="87.855469" y1="569.66211" x1="87.855469" id="linearGradient1290" xlink:href="#linearGradient1280" inkscape:collect="always"/>
    <filter id="filter5169" inkscape:label="Drop Shadow" style="color-interpolation-filters:sRGB">
      <feFlood id="feFlood5159" result="flood" flood-color="rgb(0,0,0)" flood-opacity="0.498039"/>
      <feComposite id="feComposite5161" result="composite1" operator="in" in2="SourceGraphic" in="flood"/>
      <feGaussianBlur id="feGaussianBlur5163" result="blur" stdDeviation="0.5" in="composite1"/>
      <feOffset id="feOffset5165" result="offset" dy="1.6" dx="0"/>
      <feComposite id="feComposite5167" result="composite2" operator="over" in2="offset" in="SourceGraphic"/>
    </filter>
    <filter id="filter5291" inkscape:label="Blur" style="color-interpolation-filters:sRGB">
      <feGaussianBlur id="feGaussianBlur5289" result="blur" stdDeviation="2 2"/>
    </filter>
    <filter id="filter5169-6" inkscape:label="Drop Shadow" style="color-interpolation-filters:sRGB">
      <feFlood id="feFlood5159-2" result="flood" flood-color="rgb(0,0,0)" flood-opacity="0.498039"/>
      <feComposite id="feComposite5161-9" result="composite1" operator="in" in2="SourceGraphic" in="flood"/>
      <feGaussianBlur id="feGaussianBlur5163-4" result="blur" stdDeviation="0.5" in="composite1"/>
      <feOffset id="feOffset5165-3" result="offset" dy="1.6" dx="0"/>
      <feComposite id="feComposite5167-7" result="composite2" operator="over" in2="offset" in="SourceGraphic"/>
    </filter>
    <filter id="filter5291-4" inkscape:label="Blur" style="color-interpolation-filters:sRGB">
      <feGaussianBlur id="feGaussianBlur5289-3" result="blur" stdDeviation="2 2"/>
    </filter>
    <linearGradient y2="701.60547" x2="406.98828" y1="-112.95508" x1="-407.57227" gradientTransform="matrix(0.2645748,0,0,0.2645748,73.9738,33.760737)" gradientUnits="userSpaceOnUse" id="linearGradient994" xlink:href="#linearGradient8279" inkscape:collect="always"/>
  </defs>
  <sodipodi:namedview inkscape:guide-bbox="true" showguides="true" inkscape:document-rotation="0" inkscape:window-maximized="1" inkscape:window-y="-8" inkscape:window-x="-8" inkscape:window-height="705" inkscape:window-width="1366" fit-margin-bottom="0" fit-margin-right="0" fit-margin-left="0" fit-margin-top="0" showgrid="false" inkscape:current-layer="layer1" inkscape:document-units="mm" inkscape:cy="532.86834" inkscape:cx="754.456" inkscape:zoom="0.42919518" inkscape:pageshadow="2" inkscape:pageopacity="0.0" borderopacity="1.0" bordercolor="#666666" pagecolor="#ffffff" id="base"/>
  <metadata id="metadata5">
    <rdf:RDF>
      <cc:Work rdf:about="">
        <dc:format>image/svg+xml</dc:format>
        <dc:type rdf:resource="http://purl.org/dc/dcmitype/StillImage"/>
        <dc:title/>
      </cc:Work>
    </rdf:RDF>
  </metadata>
  <g transform="translate(33.859552,-3.8756701)" id="layer1" inkscape:groupmode="layer" inkscape:label="Layer 1">
    <g id="g1040">
      <path style="opacity:1;fill:#1b4786;fill-opacity:1;stroke:none;stroke-width:6.60000038;stroke-linecap:round;stroke-linejoin:round;stroke-miterlimit:4;stroke-dasharray:none;stroke-opacity:1;paint-order:normal" d="M -33.859552,3.8756701 H 246.21045 V 283.94568 H -33.859552 Z" id="rect1140" inkscape:connector-curvature="0"/>
      <path style="opacity:1;fill:url(#linearGradient994);fill-opacity:1;stroke:none;stroke-width:11.9286747;stroke-linecap:round;stroke-linejoin:round;stroke-miterlimit:4;stroke-dasharray:none;stroke-opacity:1;paint-order:normal" d="M -33.859552,3.8756701 V 219.38683 H 181.65109 V 3.8756701 Z" id="path1149" inkscape:connector-curvature="0"/>
      <path style="opacity:1;fill:#051947;fill-opacity:1;stroke:none;stroke-width:11.9286747;stroke-linecap:round;stroke-linejoin:round;stroke-miterlimit:4;stroke-dasharray:none;stroke-opacity:1;paint-order:normal" d="m 181.65264,219.38786 v 64.5578 h 64.55781 v -64.5578 z" id="rect1134" inkscape:connector-curvature="0"/>
      <path style="fill:#ffffff;fill-opacity:1;stroke-width:0.24458669" d="m -2.5789812,28.915393 h 6.87288 v 6.872886 h -6.87288 z" id="rect4" inkscape:connector-curvature="0"/>
      <path style="fill:#ffffff;stroke-width:0.24458669" d="M 4.1226988,64.722883 V 39.946252 h -6.53047 v 24.752173 h 6.53047 z" id="path1090" inkscape:connector-curvature="0"/>
      <path style="fill:#ffffff;stroke-width:0.24458669" d="m 47.365619,64.96747 v -6.06575 c -0.95389,0 -1.76102,-0.04892 -2.34803,-0.146752 -0.68484,-0.09783 -1.19848,-0.342421 -1.5409,-0.684843 -0.34242,-0.342421 -0.56255,-0.831594 -0.68484,-1.491979 -0.0978,-0.611466 -0.14675,-1.418602 -0.14675,-2.396949 v -8.63391 h 4.72052 v -5.601035 h -4.72052 v -9.636714 h -6.53047 v 23.945035 c 0,2.030069 0.17121,3.742176 0.51364,5.111862 0.34242,1.345226 0.92942,2.445867 1.73656,3.277462 0.80714,0.831594 1.88332,1.418602 3.17963,1.785482 1.32077,0.36688 2.98395,0.538091 4.96511,0.538091 z" id="path1088" inkscape:connector-curvature="0"/>
      <path style="fill:#ffffff;stroke-width:0.24458669" d="M 84.738469,64.722883 V 28.401761 h -6.53047 v 36.321122 z" id="path1086" inkscape:connector-curvature="0"/>
      <path style="fill:#ffffff;stroke-width:0.24458669" d="m 29.828759,42.392119 c -1.80995,-1.956693 -4.35365,-2.93504 -7.58219,-2.93504 -1.56536,0 -3.00842,0.317963 -4.28027,0.953889 -1.29631,0.635925 -2.37249,1.516437 -3.253,2.641536 l -0.34242,0.464714 V 43.101421 39.946252 H 7.9382488 v 24.752173 h 6.4815402 v -13.183223 0.904971 c 0,-0.146751 0,-0.293504 0,-0.440255 0.0734,-2.323574 0.63593,-4.035681 1.71211,-5.136321 1.14956,-1.174016 2.5437,-1.761024 4.13352,-1.761024 1.88331,0 3.32638,0.587008 4.28026,1.712106 0.92943,1.125099 1.41861,2.714913 1.41861,4.744982 v 0 0.07338 c 0,0 0,0 0,0 v 0 13.085388 h 6.57938 v -14.03928 c 0.0245,-3.522048 -0.90497,-6.310337 -2.71491,-8.26703 z" id="path1084" inkscape:connector-curvature="0"/>
      <path id="path1080" style="fill:#ffffff;stroke-width:0.24458669" d="m 55.436979,50.023224 c 0,-1.809942 2.07899,-4.96511 6.55492,-4.989569 4.47594,0 6.57939,3.155169 6.57939,4.96511 z m 19.39572,2.274656 c 0,-1.785482 -0.31796,-3.448672 -0.92942,-5.014027 -0.63593,-1.540896 -1.51644,-2.910582 -2.61708,-4.084598 -1.1251,-1.174016 -2.47033,-2.078987 -4.03568,-2.73937 -1.56536,-0.660384 -3.30192,-0.978347 -5.18524,-0.978347 -1.78548,0 -3.47313,0.342422 -5.03849,1.002805 -1.56535,0.684843 -2.93504,1.589814 -4.08459,2.739371 -1.14956,1.149557 -2.07899,2.519243 -2.73937,4.084597 -0.68485,1.565355 -1.00281,3.253003 -1.00281,5.038486 0,1.785483 0.31796,3.473131 0.95389,5.038486 0.63592,1.565354 1.54089,2.93504 2.66599,4.084598 1.1251,1.149557 2.51925,2.078986 4.13352,2.73937 1.61427,0.684843 3.39975,1.027264 5.30753,1.027264 5.52766,0 8.95187,-2.519243 11.0064,-4.867275 l -4.69606,-3.570966 c -0.97835,1.174016 -3.32638,2.76383 -6.26142,2.76383 -1.8344,0 -3.35084,-0.415798 -4.5004,-1.271851 -1.14956,-0.831594 -1.93223,-2.005611 -2.34803,-3.448672 l -0.0734,-0.220127 h 19.44464 z" inkscape:connector-curvature="0"/>
      <path id="path1076" style="fill:#ffffff;stroke-width:0.36832049" d="m 95.109749,62.487638 c -0.14727,0.36832 -0.36831,0.699808 -0.62615,0.957632 -0.25782,0.257825 -0.5893,0.478817 -0.95762,0.626146 -0.36833,0.147328 -0.73664,0.220991 -1.17863,0.220991 -0.40515,0 -0.81031,-0.07366 -1.17863,-0.220991 -0.36831,-0.147329 -0.6998,-0.368321 -0.95763,-0.626146 -0.25782,-0.257824 -0.47881,-0.589312 -0.62615,-0.957632 -0.14727,-0.368322 -0.22099,-0.736642 -0.22099,-1.178627 0,-0.405152 0.0736,-0.810304 0.22099,-1.178625 0.14728,-0.36832 0.36833,-0.699809 0.62615,-0.957633 0.25783,-0.257824 0.58932,-0.478817 0.95763,-0.626145 0.36832,-0.147328 0.73665,-0.220992 1.17863,-0.220992 0.40516,0 0.8103,0.07366 1.17863,0.220992 0.36832,0.147328 0.6998,0.368321 0.95762,0.626145 0.25784,0.257824 0.47883,0.589313 0.62615,0.957633 0.14728,0.368321 0.22099,0.736641 0.22099,1.178625 0,0.441985 -0.0736,0.810305 -0.22099,1.178627 z m 0.58932,-2.578245 c -0.18416,-0.441984 -0.44198,-0.810304 -0.77347,-1.141792 -0.3315,-0.331488 -0.69982,-0.589314 -1.1418,-0.773473 -0.44198,-0.184161 -0.92081,-0.294657 -1.39962,-0.294657 -0.51565,0 -0.95764,0.110496 -1.39962,0.294657 -0.44198,0.184159 -0.8103,0.441985 -1.14179,0.773473 -0.33149,0.331488 -0.58932,0.699808 -0.77347,1.141792 -0.18416,0.441985 -0.29466,0.920802 -0.29466,1.399618 0,0.51565 0.11053,0.957634 0.29466,1.399619 0.18415,0.441984 0.44198,0.810304 0.77347,1.141793 0.33149,0.331489 0.69981,0.589313 1.14179,0.773474 0.44198,0.184159 0.92081,0.294655 1.39962,0.294655 0.51565,0 0.95764,-0.110496 1.39962,-0.294655 0.44198,-0.184161 0.8103,-0.441985 1.1418,-0.773474 0.33149,-0.331489 0.58931,-0.699809 0.77347,-1.141793 0.18415,-0.441985 0.29465,-0.920802 0.29465,-1.399619 0,-0.478816 -0.11053,-0.957633 -0.29465,-1.399618 z" inkscape:connector-curvature="0"/>
      <path id="path6" style="fill:#ffffff;stroke-width:0.36832049" d="m 92.641999,61.014356 c -0.11053,0 -0.22098,0 -0.36832,0 h -0.55248 v -1.178627 h 0.55248 c 0.11053,0 0.221,0 0.36832,0 0.11054,0 0.22099,0.03683 0.3315,0.07367 0.11053,0.03683 0.18415,0.110496 0.22099,0.184161 0.0736,0.07366 0.0736,0.184159 0.0736,0.331488 0,0.147329 -0.0369,0.257825 -0.0736,0.331488 -0.0736,0.07366 -0.14728,0.147329 -0.22099,0.184161 -0.11054,0.03683 -0.22099,0.07366 -0.3315,0.07366 z m 0.40516,0.626144 c 0.29466,-0.03683 0.51565,-0.147328 0.69981,-0.331489 0.18415,-0.184159 0.29465,-0.441984 0.29465,-0.810304 0,-0.405153 -0.11053,-0.699809 -0.36832,-0.920802 -0.22099,-0.220991 -0.62614,-0.331488 -1.10496,-0.331488 h -1.62061 v 4.162021 h 0.77347 v -1.694274 h 0.55248 l 1.03131,1.694274 h 0.8103 z" inkscape:connector-curvature="0"/>
      <path inkscape:connector-curvature="0" id="path6099" style="font-style:normal;font-variant:normal;font-weight:500;font-stretch:normal;font-size:73.724px;line-height:1.25;font-family:'IntelOneALT Display';-inkscape-font-specification:'IntelOneALT Display Medium';letter-spacing:0px;word-spacing:0px;fill:#ffffff;fill-opacity:1;stroke:none;stroke-width:1.8431" d="m 100.85365,144.42401 q 0,-11.3027 7.80184,-18.9103 7.80182,-7.68 19.50456,-7.68 11.70275,0 19.42956,7.6076 7.7268,7.5351 7.7268,18.8378 0,11.3027 -7.80182,18.9827 -7.80182,7.60771 -19.42955,7.60771 -11.70275,0 -19.50458,-7.53521 -7.72681,-7.6076 -7.72681,-18.9103 z m 9.67728,-0.1449 q 0,7.8974 5.02618,13.1865 5.02618,5.2891 12.60294,5.2891 7.50177,0 12.45292,-5.2167 4.95117,-5.2166 4.95117,-13.114 0,-7.8249 -5.02618,-13.1141 -5.02618,-5.3614 -12.45292,-5.3614 -7.57678,0 -12.60296,5.2166 -4.95115,5.2166 -4.95115,13.114 z"/>
      <path inkscape:connector-curvature="0" id="path6103" style="font-style:normal;font-variant:normal;font-weight:500;font-stretch:normal;font-size:73.724px;line-height:1.25;font-family:'IntelOneALT Display';-inkscape-font-specification:'IntelOneALT Display Medium';letter-spacing:0px;word-spacing:0px;fill:#ffffff;fill-opacity:1;stroke:none;stroke-width:1.86955" d="m 70.535738,162.60971 q 5.017053,0 9.107889,-1.8113 4.168026,-1.8837 8.258862,-5.9411 l 5.71174,5.9411 q -4.785513,4.99931 -10.80598,7.53511 -5.943297,2.536 -12.967188,2.536 -12.272518,0 -20.145443,-7.39031 -7.795738,-7.4627 -7.795738,-19.0552 0,-11.2302 7.795738,-18.9103 7.795745,-7.68 19.527959,-7.68 11.963771,0 19.373579,7.3178 7.409838,7.2453 7.409838,18.8378 0,1.0144 -0.15438,2.0287 -0.0772,0.9418 -0.308747,2.1011 H 52.165563 q 1.157774,6.5933 6.174844,10.5782 5.094253,3.9124 12.195331,3.9124 z m -1.234971,-36.7337 q -6.560784,0 -11.269097,3.985 -4.708333,3.9124 -5.866107,10.5056 h 33.730098 q -0.926214,-6.8106 -5.3258,-10.6506 -4.399583,-3.84 -11.269094,-3.84 z"/>
      <path id="rect88" style="fill:#ffffff;fill-rule:evenodd;stroke-width:0" d="m 739.56055,433.89844 v 196 h 35.80859 V 501.32422 l 106.18945,128.57422 h 35.8086 v -196 h -35.8086 V 562.47266 L 775.36914,433.89844 Z" transform="matrix(0.26458333,0,0,0.26458333,-33.859552,3.8756701)" sodipodi:nodetypes="ccccccccccc"/>
      <path id="path1015" style="color:#000000;font-style:normal;font-variant:normal;font-weight:normal;font-stretch:normal;font-size:medium;line-height:normal;font-family:sans-serif;font-variant-ligatures:normal;font-variant-position:normal;font-variant-caps:normal;font-variant-numeric:normal;font-variant-alternates:normal;font-variant-east-asian:normal;font-feature-settings:normal;font-variation-settings:normal;text-indent:0;text-align:start;text-decoration:none;text-decoration-line:none;text-decoration-style:solid;text-decoration-color:#000000;letter-spacing:normal;word-spacing:normal;text-transform:none;writing-mode:lr-tb;direction:ltr;text-orientation:mixed;dominant-baseline:auto;baseline-shift:baseline;text-anchor:start;white-space:normal;shape-padding:0;shape-margin:0;inline-size:0;clip-rule:nonzero;display:inline;overflow:visible;visibility:visible;isolation:auto;mix-blend-mode:normal;color-interpolation:sRGB;color-interpolation-filters:linearRGB;solid-color:#000000;solid-opacity:1;vector-effect:none;fill:#ffffff;fill-opacity:1;fill-rule:evenodd;stroke:none;stroke-width:0;stroke-linecap:butt;stroke-linejoin:miter;stroke-miterlimit:4;stroke-dasharray:none;stroke-dashoffset:0;stroke-opacity:1;color-rendering:auto;image-rendering:auto;shape-rendering:auto;text-rendering:auto;enable-background:accumulate;stop-color:#000000" d="M 99.724609 435.66992 L 103.19922 439.97656 L 176.85938 531.31641 L 99.724609 626.96289 L 142.33008 626.96289 L 198.16016 557.72852 L 253.99219 626.96289 L 296.59766 626.96289 L 219.46289 531.31641 L 296.59766 435.66992 L 253.99219 435.66992 L 198.16016 504.9043 L 142.33008 435.66992 L 99.724609 435.66992 z " transform="matrix(0.26458333,0,0,0.26458333,-33.859552,3.8756701)"/>
      <path inkscape:connector-curvature="0" d="m 218.71332,124.11322 c -0.14727,0.36832 -0.36831,0.69981 -0.62615,0.95763 -0.25782,0.25782 -0.5893,0.47882 -0.95762,0.62614 -0.36833,0.14733 -0.73664,0.221 -1.17863,0.221 -0.40515,0 -0.81031,-0.0737 -1.17863,-0.221 -0.36831,-0.14732 -0.6998,-0.36832 -0.95763,-0.62614 -0.25782,-0.25782 -0.47881,-0.58931 -0.62615,-0.95763 -0.14727,-0.36833 -0.22099,-0.73664 -0.22099,-1.17863 0,-0.40515 0.0736,-0.8103 0.22099,-1.17863 0.14728,-0.36832 0.36833,-0.6998 0.62615,-0.95763 0.25783,-0.25782 0.58932,-0.47882 0.95763,-0.62614 0.36832,-0.14733 0.73665,-0.221 1.17863,-0.221 0.40516,0 0.8103,0.0737 1.17863,0.221 0.36832,0.14732 0.6998,0.36832 0.95762,0.62614 0.25784,0.25783 0.47883,0.58931 0.62615,0.95763 0.14728,0.36833 0.22099,0.73665 0.22099,1.17863 0,0.44199 -0.0736,0.8103 -0.22099,1.17863 z m 0.58932,-2.57825 c -0.18416,-0.44198 -0.44198,-0.8103 -0.77347,-1.14179 -0.3315,-0.33149 -0.69982,-0.58931 -1.1418,-0.77347 -0.44198,-0.18416 -0.92081,-0.29466 -1.39962,-0.29466 -0.51565,0 -0.95764,0.1105 -1.39962,0.29466 -0.44198,0.18416 -0.8103,0.44198 -1.14179,0.77347 -0.33149,0.33149 -0.58932,0.69981 -0.77347,1.14179 -0.18416,0.44199 -0.29466,0.9208 -0.29466,1.39962 0,0.51565 0.11053,0.95763 0.29466,1.39962 0.18415,0.44198 0.44198,0.8103 0.77347,1.14179 0.33149,0.33149 0.69981,0.58931 1.14179,0.77348 0.44198,0.18415 0.92081,0.29465 1.39962,0.29465 0.51565,0 0.95764,-0.1105 1.39962,-0.29465 0.44198,-0.18417 0.8103,-0.44199 1.1418,-0.77348 0.33149,-0.33149 0.58931,-0.69981 0.77347,-1.14179 0.18415,-0.44199 0.29465,-0.9208 0.29465,-1.39962 0,-0.47882 -0.11053,-0.95763 -0.29465,-1.39962 z" style="fill:#ffffff;stroke-width:0.368321" id="path1076-6"/>
      <path inkscape:connector-curvature="0" d="m 216.24557,122.63993 c -0.11053,0 -0.22098,0 -0.36832,0 h -0.55248 v -1.17862 h 0.55248 c 0.11053,0 0.221,0 0.36832,0 0.11054,0 0.22099,0.0368 0.3315,0.0737 0.11053,0.0368 0.18415,0.11049 0.22099,0.18416 0.0736,0.0737 0.0736,0.18416 0.0736,0.33149 0,0.14733 -0.0369,0.25782 -0.0736,0.33149 -0.0736,0.0737 -0.14728,0.14732 -0.22099,0.18416 -0.11054,0.0368 -0.22099,0.0737 -0.3315,0.0737 z m 0.40516,0.62615 c 0.29466,-0.0368 0.51565,-0.14733 0.69981,-0.33149 0.18415,-0.18416 0.29465,-0.44198 0.29465,-0.8103 0,-0.40516 -0.11053,-0.69981 -0.36832,-0.92081 -0.22099,-0.22099 -0.62614,-0.33148 -1.10496,-0.33148 h -1.62061 v 4.16202 h 0.77347 v -1.69428 h 0.55248 l 1.03131,1.69428 h 0.8103 z" style="fill:#ffffff;stroke-width:0.368321" id="path6-2"/>
    </g>
  </g>
  <style id="style2" type="text/css">
	.st0{fill:#00C7FD;}
	.st1{fill:#FFFFFF;}
</style>
</svg>