<svg xmlns="http://www.w3.org/2000/svg" viewBox="0 0 175.26 172.4"><defs><style>.cls-1{fill:#ff7314;}</style></defs><title>Asset 5</title><g id="Layer_2" data-name="Layer 2"><g id="Layer_1-2" data-name="Layer 1"><polygon class="cls-1" points="0 0 172.4 172.4 110.95 172.4 0 61.45 0 0"/><polygon class="cls-1" points="0 107.53 64.86 172.4 0 172.4 0 107.53"/><path class="cls-1" d="M136.55,136.55c4.32-2.3,20.82-11.63,30.88-30.6a67.26,67.26,0,0,0,5-12.07c8.49-28.12-3.12-55.7-18.78-71.69C134,2.13,107.64,0,105.83,0H0L45.23,45.23H99.85C112.38,48.09,121.43,58.7,122,70.84c.64,12.6-7.94,24.3-18.77,27.31a21.14,21.14,0,0,1-4.34.73Z"/></g></g></svg>